# 3ds Max Wavefront OBJ Exporter v0.97b - (c)2007 guruware
# File Created: 04.08.2012 15:07:21

mtllib strzala.mtl

#
# object Box02
#

v  -2.4508 6.9716 -0.0051
v  -5.3212 6.9716 5.8606
v  0.0000 6.9716 5.8606
v  0.0000 6.9716 -0.0051
v  0.0000 6.9716 42.9064
v  5.3212 6.9716 5.8606
v  -2.4508 7.4656 -0.0051
v  0.0000 7.4656 -0.0051
v  0.0000 9.5157 5.8606
v  -5.3212 7.4656 5.8606
v  0.0000 7.4656 42.9064
v  2.4508 6.9716 -0.0051
v  5.3212 7.4656 5.8606
v  2.4508 7.4656 -0.0051
v  -2.4508 6.9716 0.0051
v  0.0000 6.9716 0.0051
v  0.0000 6.9716 -5.8606
v  -5.3212 6.9716 -5.8606
v  0.0000 6.9716 -42.9064
v  5.3212 6.9716 -5.8606
v  -2.4508 7.4656 0.0051
v  -5.3212 7.4656 -5.8606
v  0.0000 9.5157 -5.8606
v  0.0000 7.4656 0.0051
v  0.0000 7.4656 -42.9064
v  2.4508 6.9716 0.0051
v  2.4508 7.4656 0.0051
v  5.3212 7.4656 -5.8606
# 28 vertices

vn 0.0000 -1.0000 -0.0000
vn -0.3922 0.6528 -0.6481
vn 0.0000 0.6373 -0.7706
vn -0.0000 0.9786 -0.2058
vn -0.8349 0.5399 -0.1067
vn 0.0000 0.9822 0.1881
vn 0.0000 0.0000 -1.0000
vn 0.9214 0.0000 -0.3887
vn 0.9905 0.0000 -0.1376
vn 0.9924 0.0000 0.1229
vn -0.9924 0.0000 0.1229
vn -0.9905 0.0000 -0.1376
vn -0.9214 0.0000 -0.3887
vn 0.3922 0.6528 -0.6481
vn 0.8349 0.5399 -0.1067
vn 0.0000 -1.0000 0.0000
vn -0.3922 0.6528 0.6481
vn -0.8349 0.5399 0.1067
vn -0.0000 0.9786 0.2058
vn 0.0000 0.6373 0.7706
vn 0.0000 0.9822 -0.1881
vn 0.0000 0.0000 1.0000
vn 0.9214 0.0000 0.3887
vn 0.9905 0.0000 0.1376
vn 0.9924 0.0000 -0.1229
vn -0.9924 0.0000 -0.1229
vn -0.9905 0.0000 0.1376
vn -0.9214 0.0000 0.3887
vn 0.3922 0.6528 0.6481
vn 0.8349 0.5399 0.1067
# 30 vertex normals

vt 0.4999 0.0288 0.0000
vt 0.5683 0.0000 0.0000
vt 0.5683 0.0535 0.0000
vt 0.4999 0.0535 0.0000
vt 1.0000 0.0535 0.0000
vt 0.5683 0.1069 0.0000
vt 0.5001 0.5305 0.0000
vt 0.5001 0.5551 0.0000
vt 0.4317 0.5551 0.0000
vt 0.4317 0.5016 0.0000
vt 0.0000 0.5551 0.0000
vt 0.4999 0.0781 0.0000
vt 0.4317 0.6085 0.0000
vt 0.5001 0.5797 0.0000
vt 0.5001 0.0288 0.0000
vt 0.5001 0.0535 0.0000
vt 0.4317 0.0535 0.0000
vt 0.4317 0.0000 0.0000
vt 0.0000 0.0535 0.0000
vt 0.4317 0.1069 0.0000
vt 0.4999 0.5305 0.0000
vt 0.5683 0.5016 0.0000
vt 0.5683 0.5551 0.0000
vt 0.4999 0.5551 0.0000
vt 1.0000 0.5551 0.0000
vt 0.5001 0.0781 0.0000
vt 0.4999 0.5797 0.0000
vt 0.5683 0.6085 0.0000
# 28 texture coords

g Box02
usemtl 08___Default
s 2
f 3/3/1 2/2/1 1/1/1 
f 1/1/1 4/4/1 3/3/1 
f 3/3/1 6/6/1 5/5/1 
f 5/5/1 2/2/1 3/3/1 
s 4
f 9/9/4 8/8/3 7/7/2 
f 7/7/2 10/10/5 9/9/4 
f 11/11/6 9/9/4 10/10/5 
s 8
f 7/1/7 8/4/7 4/4/7 
f 4/4/7 1/1/7 7/1/7 
s 16
f 13/6/9 6/6/9 12/12/8 
f 12/12/8 14/12/8 13/6/9 
f 11/11/10 5/11/10 6/13/9 
f 6/13/9 13/13/9 11/11/10 
s 64
f 10/2/12 2/2/12 5/5/11 
f 5/5/11 11/5/11 10/2/12 
f 7/1/13 1/1/13 2/2/12 
f 2/2/12 10/2/12 7/1/13 
s 2
f 12/12/1 6/6/1 3/3/1 
f 3/3/1 4/4/1 12/12/1 
s 4
f 9/9/4 13/13/15 14/14/14 
f 14/14/14 8/8/3 9/9/4 
s 8
f 8/4/7 14/12/7 12/12/7 
f 12/12/7 4/4/7 8/4/7 
s 4
f 11/11/6 13/13/15 9/9/4 
s 2
f 17/17/16 16/16/16 15/15/16 
f 15/15/16 18/18/16 17/17/16 
f 17/17/16 18/18/16 19/19/1 
f 19/19/1 20/20/16 17/17/16 
s 4
f 23/23/19 22/22/18 21/21/17 
f 21/21/17 24/24/20 23/23/19 
f 23/23/19 25/25/21 22/22/18 
s 8
f 21/15/22 15/15/22 16/16/22 
f 16/16/22 24/16/22 21/15/22 
s 16
f 28/20/24 27/26/23 26/26/23 
f 26/26/23 20/20/24 28/20/24 
f 25/19/25 28/20/24 20/20/24 
f 20/20/24 19/19/25 25/19/25 
s 64
f 22/18/27 25/19/26 19/19/26 
f 19/19/26 18/18/27 22/18/27 
f 21/15/28 22/18/27 18/18/27 
f 18/18/27 15/15/28 21/15/28 
s 2
f 26/26/16 16/16/16 17/17/16 
f 17/17/16 20/20/16 26/26/16 
s 4
f 23/23/19 24/24/20 27/27/29 
f 27/27/29 28/28/30 23/23/19 
s 8
f 24/16/22 16/16/22 26/26/22 
f 26/26/22 27/26/22 24/16/22 
s 4
f 28/28/30 25/25/21 23/23/19 
# 48 faces

